<svg width="18" height="13" viewBox="0 0 18 13" fill="none" xmlns="http://www.w3.org/2000/svg">
<path d="M14.6415 5.45123L14.1847 5.32399C13.86 5.23399 13.7371 4.83923 13.9525 4.5804L14.2895 4.17509C14.8649 3.48364 14.819 2.46761 14.1834 1.83078C13.5031 1.14926 12.3983 1.14926 11.718 1.83078C11.0824 2.46761 11.0365 3.48364 11.6119 4.17509L11.9489 4.5804C12.1643 4.83923 12.0408 5.23399 11.7168 5.32399L11.2612 5.45061C10.9111 5.54806 10.5958 5.71254 10.3171 5.91985C10.3128 5.92482 10.3103 5.93102 10.306 5.93599L9.96893 6.3413C9.75355 6.60013 9.87707 6.99489 10.2011 7.08489L10.6579 7.21213C11.741 7.51316 12.5324 8.40882 12.7254 9.48634H16.7574V8.2344C16.7574 6.93654 15.8922 5.7982 14.6421 5.45061L14.6415 5.45123Z" stroke="#F4F4F4" stroke-width="1.65517" stroke-linecap="round" stroke-linejoin="round"/>
<path d="M7.47428 7.16316L7.73168 7.08614C7.94334 7.02717 7.94551 6.73948 7.94737 6.54334C7.5731 5.97976 7.12155 5.64303 6.43506 5.45186L5.97948 5.32524C5.65545 5.23524 5.53194 4.84048 5.74731 4.58166L6.08437 4.17634C6.65975 3.4849 6.61382 2.46883 5.97824 1.832C5.29794 1.15048 4.19311 1.15048 3.51283 1.832C2.87725 2.46883 2.83132 3.4849 3.40669 4.17634L3.74373 4.58166C3.95911 4.84048 3.83559 5.23524 3.51159 5.32524L3.05476 5.45248C1.80469 5.80007 0.939453 6.93841 0.939453 8.23628V9.48821H5.21104C5.40345 8.41069 6.19424 7.51503 7.27734 7.214L7.47428 7.16316Z" stroke="#F4F4F4" stroke-width="1.65517" stroke-linecap="round" stroke-linejoin="round"/>
<path d="M7.96472 6.34183L7.62769 5.93652C7.05231 5.24507 7.09824 4.229 7.73383 3.59217C8.4141 2.91068 9.51893 2.91068 10.1992 3.59217C10.8348 4.229 10.8807 5.24507 10.3053 5.93652L9.96831 6.34183C9.75293 6.60066 9.87645 6.99542 10.2011 7.08542L10.6579 7.21266C11.908 7.56024 12.7732 8.69859 12.7732 9.99645V11.2478H5.16357V9.99397C5.16357 8.69735 6.02755 7.55962 7.277 7.21204L7.73258 7.08542C8.0572 6.99542 8.1801 6.60066 7.96472 6.34183Z" stroke="#F4F4F4" stroke-width="1.65517" stroke-linecap="round" stroke-linejoin="round"/>
</svg>
