<svg width="19" height="19" viewBox="0 0 19 19" fill="none" xmlns="http://www.w3.org/2000/svg">
<g clip-path="url(#clip0_362_8204)">
<path d="M16.1401 10.6487C16.1401 11.9702 15.6719 13.3086 14.9967 14.3566M4.24128 6.59662C5.04249 5.56679 6.17019 4.77281 7.42884 4.34517M2.90332 10.5822C2.93386 11.9358 3.32774 13.3717 4.03558 14.422M7.03084 16.8171C7.79404 17.1231 8.62725 17.2915 9.49973 17.2915C10.345 17.2915 11.1534 17.1335 11.8969 16.8454M14.857 6.7251C14.0276 5.60576 12.8121 4.74325 11.4599 4.3092" stroke="#F4F4F4" stroke-width="1.71429" stroke-linecap="round" stroke-linejoin="round"/>
<path d="M9.50048 5.78688C10.4837 5.78688 11.2807 4.98955 11.2807 4.00599C11.2807 3.02243 10.4837 2.2251 9.50048 2.2251C8.51723 2.2251 7.72021 3.02243 7.72021 4.00599C7.72021 4.98955 8.51723 5.78688 9.50048 5.78688Z" stroke="#F4F4F4" stroke-width="1.71429" stroke-linecap="round" stroke-linejoin="round"/>
<path d="M5.30417 17.6474C6.28738 17.6474 7.0844 16.8502 7.0844 15.8666C7.0844 14.883 6.28738 14.0857 5.30417 14.0857C4.32097 14.0857 3.52393 14.883 3.52393 15.8666C3.52393 16.8502 4.32097 17.6474 5.30417 17.6474Z" stroke="#F4F4F4" stroke-width="1.71429" stroke-linecap="round" stroke-linejoin="round"/>
<path d="M3.56589 10.5359C4.54909 10.5359 5.34613 9.73856 5.34613 8.75499C5.34613 7.77148 4.54909 6.97412 3.56589 6.97412C2.58268 6.97412 1.78564 7.77148 1.78564 8.75499C1.78564 9.73856 2.58268 10.5359 3.56589 10.5359Z" stroke="#F4F4F4" stroke-width="1.71429" stroke-linecap="round" stroke-linejoin="round"/>
<path d="M15.4341 10.5359C16.4173 10.5359 17.2143 9.73856 17.2143 8.75499C17.2143 7.77148 16.4173 6.97412 15.4341 6.97412C14.4508 6.97412 13.6538 7.77148 13.6538 8.75499C13.6538 9.73856 14.4508 10.5359 15.4341 10.5359Z" stroke="#F4F4F4" stroke-width="1.71429" stroke-linecap="round" stroke-linejoin="round"/>
<path d="M13.6484 17.6537C14.6315 17.6537 15.4286 16.8563 15.4286 15.8728C15.4286 14.8892 14.6315 14.0919 13.6484 14.0919C12.6652 14.0919 11.8682 14.8892 11.8682 15.8728C11.8682 16.8563 12.6652 17.6537 13.6484 17.6537Z" stroke="#F4F4F4" stroke-width="1.71429" stroke-linecap="round" stroke-linejoin="round"/>
</g>
<defs>
<clipPath id="clip0_362_8204">
<rect width="18" height="18" fill="white" transform="translate(0.5 0.939392)"/>
</clipPath>
</defs>
</svg>
