<svg width="19" height="19" viewBox="0 0 19 19" fill="none" xmlns="http://www.w3.org/2000/svg">
<g clip-path="url(#clip0_362_8212)">
<path d="M3.71436 10.4714V7.89996H15.2858V10.4714" stroke="#F4F4F4" stroke-width="1.71429" stroke-linecap="round" stroke-linejoin="round"/>
<path d="M9.52136 5.03465C10.5053 5.03465 11.303 4.23698 11.303 3.25301C11.303 2.26904 10.5053 1.47137 9.52136 1.47137C8.5374 1.47137 7.73975 2.26904 7.73975 3.25301C7.73975 4.23698 8.5374 5.03465 9.52136 5.03465Z" stroke="#F4F4F4" stroke-width="1.71429" stroke-linecap="round" stroke-linejoin="round"/>
<path d="M9.45599 16.6913C10.44 16.6913 11.2376 15.8936 11.2376 14.9097C11.2376 13.9257 10.44 13.1281 9.45599 13.1281C8.47197 13.1281 7.67432 13.9257 7.67432 14.9097C7.67432 15.8936 8.47197 16.6913 9.45599 16.6913Z" stroke="#F4F4F4" stroke-width="1.71429" stroke-linecap="round" stroke-linejoin="round"/>
<path d="M9.5083 5.10553V13.1286" stroke="#F4F4F4" stroke-width="1.71429" stroke-linecap="round" stroke-linejoin="round"/>
<path d="M3.56728 14.0168C4.55125 14.0168 5.34892 13.2191 5.34892 12.2352C5.34892 11.2512 4.55125 10.4536 3.56728 10.4536C2.58331 10.4536 1.78564 11.2512 1.78564 12.2352C1.78564 13.2191 2.58331 14.0168 3.56728 14.0168Z" stroke="#F4F4F4" stroke-width="1.71429" stroke-linecap="round" stroke-linejoin="round"/>
<path d="M15.4325 14.0168C16.4164 14.0168 17.2141 13.2191 17.2141 12.2352C17.2141 11.2512 16.4164 10.4536 15.4325 10.4536C14.4485 10.4536 13.6509 11.2512 13.6509 12.2352C13.6509 13.2191 14.4485 14.0168 15.4325 14.0168Z" stroke="#F4F4F4" stroke-width="1.71429" stroke-linecap="round" stroke-linejoin="round"/>
</g>
<defs>
<clipPath id="clip0_362_8212">
<rect width="18" height="18" fill="white" transform="translate(0.5 0.185669)"/>
</clipPath>
</defs>
</svg>
