<svg width="19" height="19" viewBox="0 0 19 19" fill="none" xmlns="http://www.w3.org/2000/svg">
<g clip-path="url(#clip0_362_8167)">
<path d="M2.45264 11.3199C2.45264 14.6173 5.12572 17.2904 8.42311 17.2904C11.7205 17.2904 14.3936 14.6173 14.3936 11.3199C14.3936 8.02249 11.7205 5.34943 8.42311 5.34943C5.12571 5.34943 2.45264 8.02249 2.45264 11.3199Z" stroke="#F4F4F4" stroke-width="1.65517" stroke-linecap="round" stroke-linejoin="round"/>
<path d="M5.04834 11.3198C5.04834 13.1836 6.55921 14.6944 8.42295 14.6944C10.2867 14.6944 11.7976 13.1836 11.7976 11.3198C11.7976 9.45607 10.2867 7.94519 8.42295 7.94519C6.5592 7.94519 5.04834 9.45607 5.04834 11.3198Z" stroke="#F4F4F4" stroke-width="1.65517" stroke-linecap="round" stroke-linejoin="round"/>
<path d="M8.68262 11.2238L13.5186 6.38776" stroke="#F4F4F4" stroke-width="1.65517" stroke-linecap="round" stroke-linejoin="round"/>
<path d="M15.2365 2.80145L13.481 4.55702V6.7515H15.6754L17.431 4.99592L15.4559 4.77647L15.2365 2.80145Z" stroke="#F4F4F4" stroke-width="1.65517" stroke-linecap="round" stroke-linejoin="round"/>
<path d="M7.64453 11.3198C7.64453 11.7499 7.99317 12.0986 8.42331 12.0986C8.85339 12.0986 9.20203 11.7499 9.20203 11.3198C9.20203 10.8897 8.85339 10.5411 8.42331 10.5411C7.99317 10.5411 7.64453 10.8897 7.64453 11.3198Z" stroke="#F4F4F4" stroke-width="1.65517" stroke-linecap="round" stroke-linejoin="round"/>
</g>
<defs>
<clipPath id="clip0_362_8167">
<rect width="18" height="18" fill="white" transform="translate(0.900879 0.939392)"/>
</clipPath>
</defs>
</svg>
