<svg width="19" height="19" viewBox="0 0 19 19" fill="none" xmlns="http://www.w3.org/2000/svg">
<g clip-path="url(#clip0_362_8225)">
<path d="M4.3335 4.00172V6.75081C4.3335 8.93611 5.44364 10.9718 7.28076 12.1552L8.9007 13.1987L10.5843 12.1137C12.4208 10.9301 13.5304 8.89484 13.5304 6.71004V4.00172L8.92989 2.31818L4.3335 4.00172Z" stroke="#F4F4F4" stroke-width="1.5" stroke-linecap="round" stroke-linejoin="round"/>
<path d="M7.35645 7.70483L8.72856 9.22808L11.2433 6.20496" stroke="#F4F4F4" stroke-width="1.5" stroke-linecap="round" stroke-linejoin="round"/>
<path d="M8.93472 15.5094V14.8119V13.164M8.28498 15.7826C8.64691 15.4207 9.23326 15.4202 9.59468 15.7816C9.95603 16.1429 9.95558 16.7294 9.59365 17.0913C9.23166 17.4533 8.64531 17.4537 8.28389 17.0924C7.92254 16.731 7.92299 16.1446 8.28498 15.7826Z" stroke="#F4F4F4" stroke-width="1.5" stroke-linecap="round" stroke-linejoin="round"/>
<path d="M13.0793 13.9293V12.2045L12.2671 11.4067M13.7319 14.2037C13.3684 13.8402 12.7794 13.8398 12.4165 14.2027C12.0535 14.5657 12.0539 15.1547 12.4175 15.5182C12.7811 15.8818 13.3701 15.8822 13.733 15.5193C14.096 15.1563 14.0955 14.5673 13.7319 14.2037Z" stroke="#F4F4F4" stroke-width="1.5" stroke-linecap="round" stroke-linejoin="round"/>
<path d="M4.785 13.9293V12.2045L5.68793 11.3175M4.13235 14.2037C4.49591 13.8402 5.08488 13.8398 5.44785 14.2027C5.81083 14.5657 5.81035 15.1547 5.4468 15.5182C5.08324 15.8818 4.49427 15.8822 4.13129 15.5193C3.76832 15.1563 3.76879 14.5673 4.13235 14.2037Z" stroke="#F4F4F4" stroke-width="1.5" stroke-linecap="round" stroke-linejoin="round"/>
</g>
<defs>
<clipPath id="clip0_362_8225">
<rect width="18" height="18" fill="white" transform="translate(0.229492 0.755005)"/>
</clipPath>
</defs>
</svg>
