<svg xmlns="http://www.w3.org/2000/svg" width="500" height="500" style="width:100%;height:100%;transform:translate3d(0,0,0);content-visibility:visible" viewBox="0 0 500 500"><defs><clipPath id="b"><path d="M0 0h500v500H0z"/></clipPath><clipPath id="g"><path d="M0 0h500v500H0z"/></clipPath><clipPath id="f"><path d="M0 0h500v500H0z"/></clipPath><clipPath id="e"><path d="M0 0h500v500H0z"/></clipPath><clipPath id="d"><path d="M0 0h500v500H0z"/></clipPath><clipPath id="c"><path d="M0 0h500v500H0z"/></clipPath><path id="a" class="primary design" style="display:none"/><mask id="h" mask-type="alpha"><use xmlns:ns1="http://www.w3.org/1999/xlink" ns1:href="#a"/></mask></defs><g clip-path="url(#b)"><g clip-path="url(#c)" opacity="0" style="display:block"><path class="primary design" style="display:none"/><g fill="#74DA77" class="primary design" opacity="1" style="display:block"><path d="M325.821 191.88 222.088 295.612l-41.244-41.035c-6.04-6.041-16.039-6.041-22.08 0-6.04 6.04-6.04 16.039 0 22.08l52.284 52.075c3.124 3.124 7.082 4.582 11.04 4.582 3.958 0 7.915-1.458 11.04-4.582L347.9 213.959c6.249-6.04 6.249-15.83 0-22.08-6.04-6.04-15.83-6.04-22.08 0z" opacity="1"/><path d="M245 41.695c-114.773 2.916-206.008 98.526-203.3 213.3 1.25 55.615 24.371 107.482 64.573 145.81 39.16 37.285 89.777 57.49 143.519 57.49h5.207c55.616-1.25 107.483-24.371 145.81-64.573s58.74-93.11 57.491-148.726c-1.25-55.616-24.371-107.483-64.573-145.81-40.41-38.327-93.11-58.74-148.726-57.491zm133.104 330.364c-32.703 34.16-76.654 53.741-123.938 54.783-47.492 1.25-92.069-16.248-126.438-48.743-34.37-32.494-53.742-76.654-54.783-123.938-2.291-97.693 75.196-178.93 172.68-181.221H250c45.618 0 88.736 17.289 122.064 48.95 34.161 32.704 53.741 76.655 54.783 123.939 1.25 47.076-16.04 92.069-48.743 126.23z" opacity="1"/></g><path fill="none" class="primary design" style="display:none"/><path fill="none" class="primary design" style="display:none"/></g><g clip-path="url(#d)" opacity="0" style="display:block"><path fill="#74DA77" d="M-.24-9.999c-5.51.14-9.89 4.73-9.76 10.24a9.933 9.933 0 0 0 3.1 7 9.915 9.915 0 0 0 6.89 2.76h.25a9.933 9.933 0 0 0 7-3.1A9.962 9.962 0 0 0 10-.239a9.933 9.933 0 0 0-3.1-7 9.978 9.978 0 0 0-7.14-2.76zm6.39 15.86A8.446 8.446 0 0 1 .2 8.491c-2.28.06-4.42-.78-6.07-2.34A8.387 8.387 0 0 1-8.5.201c-.11-4.69 3.61-8.59 8.29-8.7H0c2.19 0 4.26.83 5.86 2.35a8.446 8.446 0 0 1 2.63 5.95c.06 2.26-.77 4.42-2.34 6.06z" class="primary design" opacity="1" style="display:block" transform="translate(250 249.974) scale(20.83)"/><g class="primary design" style="display:none"><path/><path/></g><path fill="none" class="primary design" style="display:none"/><path fill="none" class="primary design" style="display:none"/><path fill="none" class="primary design" style="display:none"/></g><g clip-path="url(#e)" opacity="0" style="display:block"><path class="primary design" style="display:none"/><path fill="none" class="primary design" style="display:none"/></g><g clip-path="url(#f)" style="display:block"><g fill="#74DA77" class="primary design" style="display:block"><path d="M325.821 191.88 222.088 295.612l-41.244-41.035c-6.04-6.041-16.039-6.041-22.08 0-6.04 6.04-6.04 16.039 0 22.08l52.284 52.075c3.124 3.124 7.082 4.582 11.04 4.582 3.958 0 7.915-1.458 11.04-4.582L347.9 213.959c6.249-6.04 6.249-15.83 0-22.08-6.04-6.04-15.83-6.04-22.08 0z"/><path d="M245 41.695c-114.773 2.916-206.008 98.526-203.3 213.3 1.25 55.615 24.371 107.482 64.573 145.81 39.16 37.285 89.777 57.49 143.519 57.49h5.207c55.616-1.25 107.483-24.371 145.81-64.573s58.74-93.11 57.491-148.726c-1.25-55.616-24.371-107.483-64.573-145.81-40.41-38.327-93.11-58.74-148.726-57.491zm133.104 330.364c-32.703 34.16-76.654 53.741-123.938 54.783-47.492 1.25-92.069-16.248-126.438-48.743-34.37-32.494-53.742-76.654-54.783-123.938-2.291-97.693 75.196-178.93 172.68-181.221H250c45.618 0 88.736 17.289 122.064 48.95 34.161 32.704 53.741 76.655 54.783 123.939 1.25 47.076-16.04 92.069-48.743 126.23z"/></g><g class="primary design" style="display:none"><path/><path/></g><path fill="none" class="primary design" style="display:none"/><path fill="none" class="primary design" style="display:none"/><path fill="none" class="primary design" style="display:none"/></g><g clip-path="url(#g)" opacity="0" style="display:block"><g class="primary design" style="display:none"><path/><path/></g><path fill="none" class="primary design" style="display:none"/><g mask="url(#h)" style="display:none"><path fill="none" class="primary design"/></g></g><g class="com" style="display:none"><path/><path/><path/><path/><path/><path/><path/><path/><path/><path/><path/><path/></g></g></svg>