<svg width="9" height="9" viewBox="0 0 9 9" fill="none" xmlns="http://www.w3.org/2000/svg">
<g clip-path="url(#clip0_40_433)">
<path d="M2.77839 4.78413L4.11172 7.78413C4.37694 7.78413 4.6313 7.67877 4.81883 7.49123C5.00637 7.3037 5.11172 7.04934 5.11172 6.78413V5.45079H6.99839C7.09503 5.45189 7.19075 5.43196 7.27892 5.39239C7.36708 5.35282 7.4456 5.29455 7.50901 5.22162C7.57243 5.1487 7.61923 5.06285 7.64617 4.97004C7.67312 4.87723 7.67956 4.77967 7.66506 4.68413L7.20506 1.68413C7.18095 1.52516 7.1002 1.38026 6.97769 1.27613C6.85518 1.17199 6.69917 1.11564 6.53839 1.11746H2.77839M2.77839 4.78413V1.11746M2.77839 4.78413H1.88839C1.69974 4.78746 1.51643 4.72142 1.37325 4.59852C1.23008 4.47563 1.13702 4.30444 1.11172 4.11746V1.78413C1.13702 1.59715 1.23008 1.42596 1.37325 1.30307C1.51643 1.18017 1.69974 1.11412 1.88839 1.11746H2.77839" stroke="#2E2E2E" stroke-linecap="round" stroke-linejoin="round"/>
</g>
<defs>
<clipPath id="clip0_40_433">
<rect width="8" height="8" fill="white" transform="matrix(-1 0 0 1 8.44507 0.450806)"/>
</clipPath>
</defs>
</svg>
