<svg width="13" height="12" viewBox="0 0 13 12" fill="none" xmlns="http://www.w3.org/2000/svg">
<path d="M7.47656 1.5H3.47656C3.21135 1.5 2.95699 1.60536 2.76946 1.79289C2.58192 1.98043 2.47656 2.23478 2.47656 2.5V10.5C2.47656 10.7652 2.58192 11.0196 2.76946 11.2071C2.95699 11.3946 3.21135 11.5 3.47656 11.5H9.47656C9.74178 11.5 9.99613 11.3946 10.1837 11.2071C10.3712 11.0196 10.4766 10.7652 10.4766 10.5V4.5L7.47656 1.5Z" stroke="#2E2E2E" stroke-linecap="round" stroke-linejoin="round"/>
<path d="M7.47656 1.5V4.5H10.4766" stroke="#2E2E2E" stroke-linecap="round" stroke-linejoin="round"/>
<path d="M8.47656 7H4.47656" stroke="#2E2E2E" stroke-linecap="round" stroke-linejoin="round"/>
<path d="M8.47656 9H4.47656" stroke="#2E2E2E" stroke-linecap="round" stroke-linejoin="round"/>
<path d="M5.47656 5H4.97656H4.47656" stroke="#2E2E2E" stroke-linecap="round" stroke-linejoin="round"/>
</svg>
