<svg width="9" height="9" viewBox="0 0 9 9" fill="none" xmlns="http://www.w3.org/2000/svg">
<g clip-path="url(#clip0_40_437)">
<path d="M2.45613 3.75695L3.78946 0.75695C4.05468 0.75695 4.30903 0.862306 4.49657 1.04984C4.6841 1.23738 4.78946 1.49173 4.78946 1.75695L4.78946 3.09028H6.67613C6.77276 3.08919 6.86848 3.10912 6.95665 3.14869C7.04482 3.18826 7.12333 3.24653 7.18675 3.31945C7.25016 3.39238 7.29696 3.47822 7.32391 3.57103C7.35085 3.66384 7.3573 3.7614 7.34279 3.85695L6.88279 6.85695C6.85868 7.01592 6.77794 7.16082 6.65543 7.26495C6.53292 7.36908 6.3769 7.42543 6.21613 7.42362L2.45613 7.42362M2.45613 3.75695L2.45613 7.42362M2.45613 3.75695L1.56613 3.75695C1.37747 3.75361 1.19416 3.81966 1.05099 3.94256C0.907816 4.06545 0.814751 4.23664 0.789459 4.42362V6.75695C0.814751 6.94393 0.907816 7.11512 1.05099 7.23801C1.19416 7.3609 1.37747 7.42695 1.56613 7.42362H2.45613" stroke="#2E2E2E" stroke-linecap="round" stroke-linejoin="round"/>
</g>
<defs>
<clipPath id="clip0_40_437">
<rect width="8" height="8" fill="white" transform="matrix(-1 0 0 -1 8.1228 8.09027)"/>
</clipPath>
</defs>
</svg>
