<svg width="13" height="12" viewBox="0 0 13 12" fill="none" xmlns="http://www.w3.org/2000/svg">
<path d="M10.9766 5.75001C10.9783 6.40995 10.8241 7.06096 10.5266 7.65001C10.1738 8.35589 9.63144 8.9496 8.96029 9.36465C8.28914 9.77971 7.51568 9.99971 6.72656 10C6.06663 10.0017 5.41562 9.84755 4.82656 9.55001L1.97656 10.5L2.92656 7.65001C2.62903 7.06096 2.47484 6.40995 2.47656 5.75001C2.47687 4.96089 2.69687 4.18744 3.11192 3.51629C3.52698 2.84514 4.12069 2.3028 4.82656 1.95001C5.41562 1.65248 6.06663 1.49829 6.72656 1.50001H6.97656C8.01874 1.55751 9.00308 1.99739 9.74113 2.73544C10.4792 3.47349 10.9191 4.45784 10.9766 5.50001V5.75001Z" stroke="#2E2E2E" stroke-linecap="round" stroke-linejoin="round"/>
</svg>
