<svg xmlns="http://www.w3.org/2000/svg" width="500" height="500" style="width:100%;height:100%;transform:translate3d(0,0,0);content-visibility:visible" viewBox="0 0 500 500"><defs><clipPath id="d"><path d="M0 0h500v500H0z"/></clipPath><clipPath id="l"><path d="M0 0h500v500H0z"/></clipPath><clipPath id="k"><path d="M0 0h500v500H0z"/></clipPath><clipPath id="i"><path d="M0 0h500v500H0z"/></clipPath><clipPath id="c"><path d="M0 0h500v500H0z"/></clipPath><clipPath id="h"><path d="M0 0h500v500H0z"/></clipPath><clipPath id="g"><path d="M0 0h500v500H0z"/></clipPath><clipPath id="f"><path d="M0 0h500v500H0z"/></clipPath><clipPath id="e"><path d="M0 0h500v500H0z"/></clipPath><filter id="a" width="100%" height="100%" x="0%" y="0%" filterUnits="objectBoundingBox"><feComponentTransfer in="SourceGraphic"><feFuncA tableValues="1.0 0.0" type="table"/></feComponentTransfer></filter><mask id="j" mask-type="alpha"><g filter="url(#a)"><path fill="#fff" d="M0 0h500v500H0z" opacity="0"/><use xmlns:ns1="http://www.w3.org/1999/xlink" ns1:href="#b"/></g></mask><g id="b" fill-opacity="0" stroke-linecap="round" stroke-linejoin="round" clip-path="url(#c)" style="display:none"><path class="primary design" style="display:none"/><path class="primary design" style="display:none"/></g></defs><g clip-path="url(#d)"><g clip-path="url(#e)" opacity="0" style="display:block"><g class="primary design" style="display:none"><path/><path/></g><path fill="#F8A2A2" d="M-.24-9.999a9.933 9.933 0 0 0-7 3.1A9.978 9.978 0 0 0-10 .241a9.933 9.933 0 0 0 3.1 7 9.915 9.915 0 0 0 6.89 2.76h.25a9.933 9.933 0 0 0 7-3.1A9.962 9.962 0 0 0 10-.239a9.933 9.933 0 0 0-3.1-7 9.994 9.994 0 0 0-7.14-2.76zm6.39 15.86A8.446 8.446 0 0 1 .2 8.491c-2.26.06-4.43-.78-6.07-2.34A8.446 8.446 0 0 1-8.5.201c-.05-2.26.78-4.42 2.35-6.06A8.446 8.446 0 0 1-.2-8.489h.21c2.19 0 4.26.83 5.86 2.35A8.446 8.446 0 0 1 8.5-.189c.05 2.25-.78 4.41-2.35 6.05z" class="primary design" opacity="1" style="display:block" transform="translate(250.002 249.974) scale(20.83)"/><path fill="none" class="primary design" style="display:none"/><path fill="none" class="primary design" style="display:none"/><path fill="none" class="primary design" style="display:none"/></g><g clip-path="url(#f)" opacity="0" style="display:block"><path class="primary design" style="display:none"/><path fill="none" class="primary design" style="display:none"/></g><g clip-path="url(#g)" opacity="0" style="display:block"><g fill="#F8A2A2" class="primary design" opacity="1" style="display:block"><path d="M328.74 171.258c-6.041-6.04-16.04-6.04-22.08 0l-56.658 56.657-56.658-56.657c-6.04-6.04-16.039-6.04-22.08 0-6.04 6.04-6.04 16.039 0 22.08l56.658 56.657-56.657 56.658c-6.041 6.04-6.041 16.039 0 22.08 3.124 3.124 7.082 4.582 11.04 4.582 3.957 0 7.915-1.458 11.04-4.582l56.657-56.658 56.658 56.658c3.124 3.124 7.082 4.582 11.04 4.582 3.957 0 7.915-1.458 11.04-4.582 6.04-6.041 6.04-16.04 0-22.08l-56.658-56.658 56.657-56.657c6.041-6.041 6.041-16.04 0-22.08z" opacity="1"/><path d="M245.003 41.695c-55.616 1.25-107.483 24.371-145.81 64.573-38.327 40.41-58.74 93.11-57.491 148.726 1.25 55.616 24.371 107.483 64.573 145.81 39.16 37.286 89.777 57.491 143.519 57.491H255c55.616-1.25 107.483-24.371 145.81-64.573s58.74-93.11 57.49-148.726c-1.249-55.616-24.37-107.483-64.572-145.81-40.41-38.327-93.318-58.74-148.726-57.491zm133.103 330.364c-32.703 34.16-76.654 53.741-123.938 54.783-47.076 1.25-92.277-16.248-126.438-48.743-34.161-32.703-53.742-76.654-54.783-123.938-1.042-47.076 16.247-92.069 48.95-126.23 32.704-34.161 76.655-53.741 123.939-54.783h4.374c45.618 0 88.736 17.29 122.064 48.95 34.161 32.704 53.741 76.655 54.783 123.94 1.041 46.867-16.247 91.86-48.95 126.02z" opacity="1"/></g><path fill="none" class="primary design" style="display:none"/><path fill="none" class="primary design" style="display:none"/><path fill="none" class="primary design" style="display:none"/><g class="primary design" style="display:none"><path/><path/></g></g><g clip-path="url(#h)" style="display:block"><g class="primary design" style="display:none"><path/><path/></g><g fill="#F8A2A2" class="primary design" style="display:block"><path d="M328.74 171.258c-6.041-6.04-16.04-6.04-22.08 0l-56.658 56.657-56.658-56.657c-6.04-6.04-16.039-6.04-22.08 0-6.04 6.04-6.04 16.039 0 22.08l56.658 56.657-56.657 56.658c-6.041 6.04-6.041 16.039 0 22.08 3.124 3.124 7.082 4.582 11.04 4.582 3.957 0 7.915-1.458 11.04-4.582l56.657-56.658 56.658 56.658c3.124 3.124 7.082 4.582 11.04 4.582 3.957 0 7.915-1.458 11.04-4.582 6.04-6.041 6.04-16.04 0-22.08l-56.658-56.658 56.657-56.657c6.041-6.041 6.041-16.04 0-22.08z"/><path d="M245.003 41.695c-55.616 1.25-107.483 24.371-145.81 64.573-38.327 40.41-58.74 93.11-57.491 148.726 1.25 55.616 24.371 107.483 64.573 145.81 39.16 37.286 89.777 57.491 143.519 57.491H255c55.616-1.25 107.483-24.371 145.81-64.573s58.74-93.11 57.49-148.726c-1.249-55.616-24.37-107.483-64.572-145.81-40.41-38.327-93.318-58.74-148.726-57.491zm133.103 330.364c-32.703 34.16-76.654 53.741-123.938 54.783-47.076 1.25-92.277-16.248-126.438-48.743-34.161-32.703-53.742-76.654-54.783-123.938-1.042-47.076 16.247-92.069 48.95-126.23 32.704-34.161 76.655-53.741 123.939-54.783h4.374c45.618 0 88.736 17.29 122.064 48.95 34.161 32.704 53.741 76.655 54.783 123.94 1.041 46.867-16.247 91.86-48.95 126.02z"/></g><path fill="none" class="primary design" style="display:none"/><path fill="none" class="primary design" style="display:none"/><path fill="none" class="primary design" style="display:none"/></g><g clip-path="url(#i)" opacity="0" style="display:block"><g class="primary design" style="display:none"><path/><path/></g><g fill="#F8A2A2" class="primary design" opacity="1" style="display:block"><path d="M328.74 171.258c-6.041-6.04-16.04-6.04-22.08 0l-56.658 56.657-56.658-56.657c-6.04-6.04-16.039-6.04-22.08 0-6.04 6.04-6.04 16.039 0 22.08l56.658 56.657-56.657 56.658c-6.041 6.04-6.041 16.039 0 22.08 3.124 3.124 7.082 4.582 11.04 4.582 3.957 0 7.915-1.458 11.04-4.582l56.657-56.658 56.658 56.658c3.124 3.124 7.082 4.582 11.04 4.582 3.957 0 7.915-1.458 11.04-4.582 6.04-6.041 6.04-16.04 0-22.08l-56.658-56.658 56.657-56.657c6.041-6.041 6.041-16.04 0-22.08z" opacity="1"/><path d="M245.003 41.695c-55.616 1.25-107.483 24.371-145.81 64.573-38.327 40.41-58.74 93.11-57.491 148.726 1.25 55.616 24.371 107.483 64.573 145.81 39.16 37.286 89.777 57.491 143.519 57.491H255c55.616-1.25 107.483-24.371 145.81-64.573s58.74-93.11 57.49-148.726c-1.249-55.616-24.37-107.483-64.572-145.81-40.41-38.327-93.318-58.74-148.726-57.491zm133.103 330.364c-32.703 34.16-76.654 53.741-123.938 54.783-47.076 1.25-92.277-16.248-126.438-48.743-34.161-32.703-53.742-76.654-54.783-123.938-1.042-47.076 16.247-92.069 48.95-126.23 32.704-34.161 76.655-53.741 123.939-54.783h4.374c45.618 0 88.736 17.29 122.064 48.95 34.161 32.704 53.741 76.655 54.783 123.94 1.041 46.867-16.247 91.86-48.95 126.02z" opacity="1"/></g><g mask="url(#j)" style="display:none"><path fill="none" class="primary design"/></g><path fill="none" class="primary design" style="display:none"/><path fill="none" class="primary design" style="display:none"/></g><g clip-path="url(#k)" opacity="0" style="display:block"><g class="primary design" style="display:none"><path/><path/></g><g fill="#F8A2A2" class="primary design" opacity="1" style="display:block"><path d="M328.74 171.258c-6.041-6.04-16.04-6.04-22.08 0l-56.658 56.657-56.658-56.657c-6.04-6.04-16.039-6.04-22.08 0-6.04 6.04-6.04 16.039 0 22.08l56.658 56.657-56.657 56.658c-6.041 6.04-6.041 16.039 0 22.08 3.124 3.124 7.082 4.582 11.04 4.582 3.957 0 7.915-1.458 11.04-4.582l56.657-56.658 56.658 56.658c3.124 3.124 7.082 4.582 11.04 4.582 3.957 0 7.915-1.458 11.04-4.582 6.04-6.041 6.04-16.04 0-22.08l-56.658-56.658 56.657-56.657c6.041-6.041 6.041-16.04 0-22.08z" opacity="1"/><path d="M245.003 41.695c-55.616 1.25-107.483 24.371-145.81 64.573-38.327 40.41-58.74 93.11-57.491 148.726 1.25 55.616 24.371 107.483 64.573 145.81 39.16 37.286 89.777 57.491 143.519 57.491H255c55.616-1.25 107.483-24.371 145.81-64.573s58.74-93.11 57.49-148.726c-1.249-55.616-24.37-107.483-64.572-145.81-40.41-38.327-93.318-58.74-148.726-57.491zm133.103 330.364c-32.703 34.16-76.654 53.741-123.938 54.783-47.076 1.25-92.277-16.248-126.438-48.743-34.161-32.703-53.742-76.654-54.783-123.938-1.042-47.076 16.247-92.069 48.95-126.23 32.704-34.161 76.655-53.741 123.939-54.783h4.374c45.618 0 88.736 17.29 122.064 48.95 34.161 32.704 53.741 76.655 54.783 123.94 1.041 46.867-16.247 91.86-48.95 126.02z" opacity="1"/></g><path fill="none" class="primary design" style="display:none"/><path fill="none" class="primary design" style="display:none"/><path fill="none" class="primary design" style="display:none"/></g><g clip-path="url(#l)" opacity="0" style="display:block"><g class="primary design" style="display:none"><path/><path/></g><path fill="none" class="primary design" style="display:none"/><path fill="none" class="primary design" style="display:none"/><path fill="none" class="primary design" style="display:none"/></g><g class="com" style="display:none"><path/><path/><path/><path/><path/><path/><path/><path/><path/><path/><path/><path/></g></g></svg>