<svg xmlns="http://www.w3.org/2000/svg" width="500" height="500" style="width:100%;height:100%;transform:translate3d(0,0,0);content-visibility:visible" viewBox="0 0 500 500"><defs><clipPath id="s"><path d="M0 0h500v500H0z"/></clipPath><clipPath id="E"><path d="M0 0h500v500H0z"/></clipPath><clipPath id="m"><path d="M0 0h500v500H0z"/></clipPath><clipPath id="C"><path d="M0 0h500v500H0z"/></clipPath><clipPath id="n"><path d="M0 0h500v500H0z"/></clipPath><clipPath id="A"><path d="M0 0h500v500H0z"/></clipPath><clipPath id="o"><path d="M0 0h500v500H0z"/></clipPath><clipPath id="y"><path d="M0 0h500v500H0z"/></clipPath><clipPath id="p"><path d="M0 0h500v500H0z"/></clipPath><clipPath id="w"><path d="M0 0h500v500H0z"/></clipPath><clipPath id="q"><path d="M0 0h500v500H0z"/></clipPath><clipPath id="v"><path d="M0 0h500v500H0z"/></clipPath><clipPath id="t"><path d="M0 0h500v500H0z"/></clipPath><clipPath id="r"><path d="M0 0h500v500H0z"/></clipPath><filter id="a" width="100%" height="100%" x="0%" y="0%" filterUnits="objectBoundingBox"><feComponentTransfer in="SourceGraphic"><feFuncA tableValues="1.0 0.0" type="table"/></feComponentTransfer></filter><filter id="c" width="100%" height="100%" x="0%" y="0%" filterUnits="objectBoundingBox"><feComponentTransfer in="SourceGraphic"><feFuncA tableValues="1.0 0.0" type="table"/></feComponentTransfer></filter><filter id="e" width="100%" height="100%" x="0%" y="0%" filterUnits="objectBoundingBox"><feComponentTransfer in="SourceGraphic"><feFuncA tableValues="1.0 0.0" type="table"/></feComponentTransfer></filter><filter id="g" width="100%" height="100%" x="0%" y="0%" filterUnits="objectBoundingBox"><feComponentTransfer in="SourceGraphic"><feFuncA tableValues="1.0 0.0" type="table"/></feComponentTransfer></filter><filter id="i" width="100%" height="100%" x="0%" y="0%" filterUnits="objectBoundingBox"><feComponentTransfer in="SourceGraphic"><feFuncA tableValues="1.0 0.0" type="table"/></feComponentTransfer></filter><filter id="k" width="100%" height="100%" x="0%" y="0%" filterUnits="objectBoundingBox"><feComponentTransfer in="SourceGraphic"><feFuncA tableValues="1.0 0.0" type="table"/></feComponentTransfer></filter><mask id="F" mask-type="alpha"><g filter="url(#a)"><path fill="#fff" d="M0 0h500v500H0z" opacity="0"/><use xmlns:ns1="http://www.w3.org/1999/xlink" ns1:href="#b"/></g></mask><mask id="D" mask-type="alpha"><g filter="url(#c)"><path fill="#fff" d="M0 0h500v500H0z" opacity="0"/><use xmlns:ns2="http://www.w3.org/1999/xlink" ns2:href="#d"/></g></mask><mask id="B" mask-type="alpha"><g filter="url(#e)"><path fill="#fff" d="M0 0h500v500H0z" opacity="0"/><use xmlns:ns3="http://www.w3.org/1999/xlink" ns3:href="#f"/></g></mask><mask id="z" mask-type="alpha"><g filter="url(#g)"><path fill="#fff" d="M0 0h500v500H0z" opacity="0"/><use xmlns:ns4="http://www.w3.org/1999/xlink" ns4:href="#h"/></g></mask><mask id="x" mask-type="alpha"><g filter="url(#i)"><path fill="#fff" d="M0 0h500v500H0z" opacity="0"/><use xmlns:ns5="http://www.w3.org/1999/xlink" ns5:href="#j"/></g></mask><mask id="u" mask-type="alpha"><g filter="url(#k)"><path fill="#fff" d="M0 0h500v500H0z" opacity="0"/><use xmlns:ns6="http://www.w3.org/1999/xlink" ns6:href="#l"/></g></mask><g id="b" fill-opacity="0" stroke-linecap="round" stroke-linejoin="round" clip-path="url(#m)" style="display:none"><path class="primary design" style="display:none"/><path class="primary design" style="display:none"/></g><g id="d" fill-opacity="0" stroke-linecap="round" stroke-linejoin="round" clip-path="url(#n)" style="display:none"><path class="primary design" style="display:none"/><path class="primary design" style="display:none"/></g><g id="f" fill-opacity="0" stroke-linecap="round" stroke-linejoin="round" clip-path="url(#o)" style="display:none"><path class="primary design" style="display:none"/><path class="primary design" style="display:none"/></g><g id="h" fill-opacity="0" stroke-linecap="round" stroke-linejoin="round" clip-path="url(#p)" style="display:none"><path class="primary design" style="display:none"/><path class="primary design" style="display:none"/></g><g id="j" fill-opacity="0" stroke-linecap="round" stroke-linejoin="round" clip-path="url(#q)" style="display:none"><path class="primary design" style="display:none"/><path class="primary design" style="display:none"/></g><g id="l" fill-opacity="0" stroke-linecap="round" stroke-linejoin="round" clip-path="url(#r)" style="display:none"><path class="primary design" style="display:none"/><path class="primary design" style="display:none"/><path class="primary design" style="display:none"/></g></defs><g clip-path="url(#s)"><g clip-path="url(#t)" opacity="0" style="display:block"><g class="primary design" opacity="1" style="display:block"><path fill="#F8A2A2" d="M57.352 254.659C54.78 148.26 138.949 59.923 245.348 57.351c106.399-2.572 194.736 81.597 197.308 187.996 2.572 106.399-81.597 194.736-187.996 197.308-106.399 2.572-194.736-81.597-197.308-187.996z"/><path fill="none" stroke="#F8A2A2" stroke-linecap="round" stroke-linejoin="round" stroke-width="31.3" d="M57.352 254.659C54.78 148.26 138.949 59.923 245.348 57.351c106.399-2.572 194.736 81.597 197.308 187.996 2.572 106.399-81.597 194.736-187.996 197.308-106.399 2.572-194.736-81.597-197.308-187.996z" opacity="1"/></g><g class="primary design" style="display:none"><path/><path fill="none"/></g><g class="primary design" mask="url(#u)" style="display:none"><path/><path fill="none"/></g></g><g style="display:block"><g class="primary design" clip-path="url(#v)" opacity="0" style="display:none"><path/><path fill="none"/></g></g><g clip-path="url(#w)" opacity="0" style="display:block"><path class="primary design" style="display:none"/><path fill="#F8A2A2" d="M-.24-10C-5.75-9.86-10.13-5.27-10 .24-9.87 5.67-5.41 10 0 10h.24C5.75 9.86 10.13 5.27 10-.24 9.86-5.75 5.29-10.14-.24-10zm4.2 12.54c.39.39.39 1.03 0 1.42-.2.19-.45.29-.71.29-.26 0-.51-.1-.71-.29L0 1.42l-2.54 2.54c-.2.19-.45.29-.71.29-.26 0-.51-.1-.71-.29-.39-.39-.39-1.03 0-1.42L-1.42 0l-2.54-2.54c-.39-.39-.39-1.03 0-1.42.39-.39 1.03-.39 1.42 0L0-1.42l2.54-2.54c.39-.39 1.03-.39 1.42 0 .39.39.39 1.03 0 1.42L1.42 0l2.54 2.54z" class="primary design" opacity="1" style="display:block" transform="translate(250 250) scale(20.83)"/><g mask="url(#x)" style="display:none"><path class="primary design"/></g></g><g clip-path="url(#y)" opacity="0" style="display:block"><g class="primary design" mask="url(#z)" style="display:none"><path/><path fill="none"/></g><path class="primary design" style="display:none"/><path fill="#F8A2A2" d="M-.24-10C-5.75-9.86-10.13-5.27-10 .24-9.87 5.67-5.41 10 0 10h.24C5.75 9.86 10.13 5.27 10-.24 9.86-5.75 5.29-10.14-.24-10zm4.2 12.54c.39.39.39 1.03 0 1.42-.2.19-.45.29-.71.29-.26 0-.51-.1-.71-.29L0 1.42l-2.54 2.54c-.2.19-.45.29-.71.29-.26 0-.51-.1-.71-.29-.39-.39-.39-1.03 0-1.42L-1.42 0l-2.54-2.54c-.39-.39-.39-1.03 0-1.42.39-.39 1.03-.39 1.42 0L0-1.42l2.54-2.54c.39-.39 1.03-.39 1.42 0 .39.39.39 1.03 0 1.42L1.42 0l2.54 2.54z" class="primary design" opacity="1" style="display:block" transform="translate(250 250) scale(20.83)"/></g><g clip-path="url(#A)" opacity="0" style="display:block"><g class="primary design" mask="url(#B)" style="display:none"><path/><path fill="none"/></g><path class="primary design" style="display:none"/><path fill="#F8A2A2" d="M-.24-10C-5.75-9.86-10.13-5.27-10 .24-9.87 5.67-5.41 10 0 10h.24C5.75 9.86 10.13 5.27 10-.24 9.86-5.75 5.29-10.14-.24-10zm4.2 12.54c.39.39.39 1.03 0 1.42-.2.19-.45.29-.71.29-.26 0-.51-.1-.71-.29L0 1.42l-2.54 2.54c-.2.19-.45.29-.71.29-.26 0-.51-.1-.71-.29-.39-.39-.39-1.03 0-1.42L-1.42 0l-2.54-2.54c-.39-.39-.39-1.03 0-1.42.39-.39 1.03-.39 1.42 0L0-1.42l2.54-2.54c.39-.39 1.03-.39 1.42 0 .39.39.39 1.03 0 1.42L1.42 0l2.54 2.54z" class="primary design" opacity="1" style="display:block" transform="translate(250 250) scale(20.83)"/></g><g clip-path="url(#C)" style="display:block"><g class="primary design" mask="url(#D)" style="display:none"><path/><path fill="none"/></g><path fill="#F8A2A2" d="M-.24-10C-5.75-9.86-10.13-5.27-10 .24-9.87 5.67-5.41 10 0 10h.24C5.75 9.86 10.13 5.27 10-.24 9.86-5.75 5.29-10.14-.24-10zm4.2 12.54c.39.39.39 1.03 0 1.42-.2.19-.45.29-.71.29-.26 0-.51-.1-.71-.29L0 1.42l-2.54 2.54c-.2.19-.45.29-.71.29-.26 0-.51-.1-.71-.29-.39-.39-.39-1.03 0-1.42L-1.42 0l-2.54-2.54c-.39-.39-.39-1.03 0-1.42.39-.39 1.03-.39 1.42 0L0-1.42l2.54-2.54c.39-.39 1.03-.39 1.42 0 .39.39.39 1.03 0 1.42L1.42 0l2.54 2.54z" class="primary design" style="display:block" transform="translate(250 250) scale(20.83)"/><path class="primary design" style="display:none"/></g><g clip-path="url(#E)" opacity="0" style="display:block"><g class="primary design" mask="url(#F)" style="display:none"><path/><path fill="none"/></g><path class="primary design" style="display:none"/></g><g class="com" style="display:none"><path/><path/><path/><path/><path/><path/><path/><path/><path/><path/><path/><path/></g></g></svg>