<?xml version="1.0" encoding="UTF-8"?>
<svg id="Layer_1" data-name="Layer 1" xmlns="http://www.w3.org/2000/svg" viewBox="0 0 500 500">
  <defs>
    <style>
      .cls-1 {
        fill: #74da77;
      }
    </style>
  </defs>
  <path class="cls-1" d="m250,39c-116.53,0-211,94.47-211,211s94.47,211,211,211,211-94.47,211-211S366.53,39,250,39Zm149.19,169.02l-181.25,181.25c-4.93,4.93-11.18,7.24-17.43,7.24s-12.5-2.3-17.43-7.24l-82.57-82.24c-9.54-9.54-9.54-25.33,0-34.87s25.33-9.54,34.87,0l65.13,64.8,163.82-163.82h0c9.87-9.54,25.33-9.54,34.87,0,9.87,9.87,9.87,25.33,0,34.87Z"/>
</svg>