<svg width="60" height="60" viewBox="0 0 60 60" fill="none" xmlns="http://www.w3.org/2000/svg">
<path d="M10.2858 37.4201C11.4716 40.7599 13.2113 43.7622 15.6348 46.3579C18.4565 49.3949 21.8322 51.6013 25.7444 52.9857C29.951 54.4739 34.2527 54.768 38.6151 53.9547C43.6872 53.0116 48.0669 50.6755 51.6935 46.9982C52.2734 46.4099 52.611 46.4618 53.1303 46.9723C53.8833 47.7164 54.6623 48.4345 55.4586 49.1267C55.8308 49.4555 55.8481 49.6545 55.4846 50.0265C52.0224 53.5654 47.9717 56.1611 43.2544 57.6839C37.5072 59.5441 31.6821 59.6826 25.8916 58.03C18.6902 55.9707 13.0382 51.7484 8.95285 45.4668C7.70645 43.5459 6.72845 41.504 5.91485 39.3668C5.84555 39.1938 5.83695 39.0034 5.80225 38.8131C5.86285 38.6141 6.00135 38.4756 6.18315 38.4151C7.34295 38.0344 8.47685 37.5671 9.67125 37.2989C9.88765 37.247 10.104 37.2557 10.2944 37.4027L10.2858 37.4201Z" fill="#FE87C8"/>
<path d="M25.3209 44.8787C23.9187 44.2903 22.7589 43.3472 21.7116 42.3003C17.2021 37.8097 15.4018 32.4279 16.5529 26.1463C17.5483 20.7299 20.5604 16.7152 25.3123 13.9551C26.6798 13.1591 28.1339 12.5967 29.6833 12.2593C29.9343 12.389 30.0728 12.6227 30.168 12.8822C30.5488 13.9551 30.644 15.0886 30.9902 16.1701C31.0595 16.3864 30.9816 16.5941 30.8344 16.7671C29.3976 17.3209 27.9695 17.8746 26.6539 18.7226C22.5598 21.3616 20.2228 26.9856 21.1923 31.7877C21.9886 35.7591 24.187 38.6922 27.58 40.8034C27.7704 41.0284 27.7012 41.2706 27.58 41.487C27.026 42.4474 26.4894 43.4251 25.9441 44.3941C25.8143 44.6278 25.6585 44.8614 25.3382 44.8787H25.3209Z" fill="#FE87C8"/>
<path d="M19.8504 10.4596C21.0449 9.36068 22.473 8.64258 23.9098 7.95038C27.8913 6.04688 32.1065 5.39798 36.4689 5.83058C41.039 6.28048 45.1244 7.99368 48.751 10.823C49.8935 11.7142 50.8976 12.7352 51.8843 13.7821C52.2651 14.1888 52.2911 14.4483 51.8064 14.8117C50.9149 15.478 50.0753 16.2048 49.2357 16.9316C48.8376 17.2776 48.6039 17.3209 48.2057 16.8796C45.4533 13.7821 42.043 11.7574 37.9749 10.9095C34.3483 10.1568 30.7823 10.399 27.2941 11.7055C25.6323 12.3285 24.1435 13.2716 22.6288 14.1801C22.1787 14.0936 21.9883 13.7129 21.7286 13.41C21.1141 12.7179 20.6294 11.9305 20.0841 11.195C19.9197 10.9787 19.7552 10.7538 19.8591 10.4509L19.8504 10.4596Z" fill="#FE87C8"/>
<path d="M19.8506 10.4595C20.7768 11.6967 21.7029 12.9427 22.629 14.18C21.0537 15.5557 19.5131 16.966 18.3273 18.7225C16.4663 21.4826 15.3498 24.4936 15.0728 27.8161C14.8564 30.3945 15.1507 32.9037 15.9037 35.3783C15.7912 35.6725 15.6008 35.8801 15.2892 35.9753C14.3025 36.2781 13.3504 36.6588 12.3463 36.9097C11.7664 37.0568 11.4029 36.927 11.2125 36.356C10.0094 32.4278 9.84488 28.4304 10.7278 24.433C11.9569 18.8869 14.8305 14.3271 19.288 10.7709C19.4525 10.6412 19.6602 10.5633 19.8506 10.4595Z" fill="#E40179"/>
<path d="M11.2122 36.3472C11.5065 36.7452 11.8354 36.7625 12.3201 36.6154C13.5319 36.252 14.7523 35.9146 15.8948 35.3608C17.4615 39.8254 20.2485 43.3383 24.2993 45.7869C26.9738 47.3963 29.9167 48.2442 33.0326 48.3826C33.8116 48.4172 34.0021 48.6768 33.9674 49.3863C33.9155 50.4419 33.9415 51.5061 33.9588 52.5704C33.9588 53.029 33.7857 53.202 33.3269 53.1847C30.0292 53.0549 26.8786 52.3627 23.8838 50.9524C21.2439 49.7151 18.9156 48.0711 16.8902 45.9859C14.6052 43.6411 12.8568 40.9589 11.7489 37.87C11.5671 37.3595 11.3853 36.8577 11.2036 36.3472H11.2122Z" fill="#C30060"/>
<path d="M7.11816 16.7496C8.20016 14.2751 9.70616 12.0601 11.4719 10.0267C14.9514 6.01202 19.2359 3.15679 24.2387 1.3571C24.5936 1.22731 24.9658 1.14079 25.3293 1.04561C26.8267 0.647596 26.8354 0.647596 27.2162 2.11851C27.4326 2.95778 27.5884 3.81437 27.8394 4.64502C27.9779 5.09492 27.9 5.24202 27.4412 5.38042C25.8054 5.86502 24.1954 6.43602 22.6721 7.22342C19.8158 8.69432 17.349 10.6497 15.2024 13.0291C13.6444 14.7509 12.5019 16.741 11.3507 18.731C11.2382 18.8176 11.0997 18.8781 10.9786 18.8262C9.74946 18.2898 8.50306 17.7879 7.36056 17.0784C7.24796 17.0092 7.18746 16.8794 7.12686 16.7583L7.11816 16.7496Z" fill="#FE4D9F"/>
<path d="M7.11813 16.7495C8.52893 17.4071 9.93983 18.0647 11.3506 18.7222C10.5283 20.7902 9.75803 22.8667 9.38583 25.0644C8.70203 29.1224 8.91843 33.1111 10.1908 37.0306C10.2341 37.1604 10.2514 37.2902 10.286 37.42C8.75403 37.7661 7.29993 38.3891 5.79383 38.8303C4.62533 35.6549 4.22723 32.367 4.25313 29.0012C4.29643 24.701 5.22253 20.6171 7.10943 16.7495H7.11813Z" fill="#E4017A"/>
<path d="M25.3203 44.8786C26.0906 43.5289 26.9129 42.2137 27.5621 40.8034C29.4317 41.7119 31.3618 42.3781 33.4738 42.4473C36.3127 42.5425 38.9094 41.7984 41.2464 40.1977C41.8696 39.7737 42.259 39.6439 42.7438 40.3707C43.2977 41.2014 43.9469 41.9801 44.622 42.7242C45.098 43.2433 44.9076 43.5375 44.4402 43.8576C42.4322 45.242 40.2683 46.2543 37.8707 46.7994C33.6296 47.7685 29.6134 47.1023 25.7444 45.2334C25.58 45.1555 25.3896 45.0776 25.3203 44.8786Z" fill="#E40179"/>
<path d="M30.8256 16.767C30.4447 15.2615 30.0639 13.7646 29.6831 12.2591C31.5094 11.7227 33.3703 11.5756 35.2572 11.74C36.6074 11.8524 37.9577 12.0255 39.256 12.4927C39.6974 12.6485 39.8965 12.7609 39.6974 13.2801C39.2647 14.3876 38.8925 15.5297 38.4857 16.6459C38.3991 16.8881 38.3299 17.2083 37.9317 17.0785C35.5947 16.2998 33.2145 16.4382 30.8256 16.7756V16.767Z" fill="#E40179"/>
</svg>
