<svg width="24" height="28" viewBox="0 0 24 28" fill="none" xmlns="http://www.w3.org/2000/svg">
<path d="M23.1409 22.6476C17.0985 21.6607 17.7433 16.6886 17.7175 13.7604L23.0383 13.7404V8.58058L17.7175 8.6006V5.56229H12.5552V17.3485C12.581 23.1315 17.3629 27.8199 23.1409 27.8199V22.6476Z" fill="#5F6368"/>
<path d="M20.935 20.3259C21.6261 20.3259 22.1863 19.7657 22.1863 19.0745C22.1863 18.3834 21.6261 17.8232 20.935 17.8232C20.2438 17.8232 19.6836 18.3834 19.6836 19.0745C19.6836 19.7657 20.2438 20.3259 20.935 20.3259Z" fill="#5F6368"/>
<path d="M10.5857 17.2311C4.54329 16.2442 5.18816 11.2721 5.1623 8.3439L10.4831 8.32388V3.16408L5.1623 3.1841V0.145782H0V11.932C0.0258616 17.715 4.80775 22.4034 10.5857 22.4034V17.2311Z" fill="#5F6368"/>
<path d="M8.38027 14.9094C9.07138 14.9094 9.63164 14.3492 9.63164 13.658C9.63164 12.9669 9.07138 12.4067 8.38027 12.4067C7.68916 12.4067 7.12891 12.9669 7.12891 13.658C7.12891 14.3492 7.68916 14.9094 8.38027 14.9094Z" fill="#5F6368"/>
</svg>
