<svg width="61" height="64" viewBox="0 0 61 64" fill="none" xmlns="http://www.w3.org/2000/svg">
<g clip-path="url(#clip0_259_5895)">
<path d="M0.559044 24.7176C0.574181 24.7176 0.590481 24.7176 0.606782 24.7176L0.569523 27.2445L0.578838 29.5416C0.588152 29.5416 0.597467 29.5416 0.607946 29.5416C4.69473 29.5416 8.03401 32.807 8.06894 36.8386L0.676641 36.8661L0.684791 39.1633L0.741843 41.6729L0.751158 43.9701L8.14462 43.9425L8.17839 53.0715L10.507 53.0634L13.0546 53.0772L15.3832 53.0646L15.2889 36.8374C15.2528 28.8754 8.67323 22.4204 0.60911 22.4204C0.590481 22.4204 0.570688 22.4204 0.553223 22.4204L0.562537 24.7176H0.559044Z" fill="#00CB99"/>
<path d="M21.7535 2.62701C21.7617 2.64079 21.7698 2.65343 21.7768 2.66721L19.539 3.89849L17.527 5.05511C17.5317 5.06315 17.5363 5.07119 17.541 5.07923C19.5844 8.57092 18.3875 13.0561 14.8654 15.1018L11.1454 8.80063L9.1334 9.95611L6.95844 11.2586L4.94649 12.4152L8.66767 18.7175L0.669922 23.3107L1.84123 25.2954L3.10336 27.4789L4.27933 29.4613L18.4783 21.2673C25.4491 17.2553 27.8266 8.40667 23.7946 1.51748C23.7853 1.5014 23.776 1.48532 23.7666 1.46924L21.7547 2.62586L21.7535 2.62701Z" fill="#00CB99"/>
<path d="M51.7441 9.68839C51.7359 9.70217 51.729 9.7148 51.7208 9.72859L49.5214 8.43299L47.5001 7.29244C47.4955 7.30048 47.4908 7.30852 47.4862 7.31656C45.4428 10.8083 40.9066 12.028 37.3495 10.0421L41.0218 3.71346L39.0006 2.57177L36.7697 1.36576L34.7484 0.22522L31.0762 6.55505L23.0447 2.01816L21.8873 4.01209L20.6019 6.18177L19.4492 8.178L33.7413 16.2112C40.7494 20.1612 49.7054 17.7675 53.7374 10.8783C53.7467 10.8622 53.7561 10.8462 53.7654 10.8301L51.7441 9.68953V9.68839Z" fill="#00CB99"/>
<path d="M60.5405 38.8406C60.5254 38.8406 60.5091 38.8406 60.4928 38.8406L60.53 36.3137L60.5207 34.0165C60.5114 34.0165 60.5021 34.0165 60.4916 34.0165C56.4048 34.0165 53.0655 30.7511 53.0306 26.7196L60.4229 26.692L60.4147 24.3949L60.3577 21.8852L60.3484 19.5881L52.9549 19.6156L52.9211 10.4867L50.5925 10.4947L48.045 10.481L45.7163 10.4936L45.8106 26.7208C45.8467 34.6827 52.4263 41.1377 60.4904 41.1377C60.5091 41.1377 60.5288 41.1377 60.5463 41.1377L60.537 38.8406H60.5405Z" fill="#00CB99"/>
<path d="M39.3463 60.9325C39.3382 60.9187 39.33 60.906 39.3231 60.8923L41.5609 59.661L43.5728 58.5044C43.5682 58.4963 43.5635 58.4883 43.5589 58.4802C41.5155 54.9885 42.7124 50.5033 46.2345 48.4577L49.9545 54.7588L51.9665 53.6034L54.1414 52.3009L56.1534 51.1442L52.4322 44.842L60.4299 40.2488L59.2586 38.264L57.9965 36.0806L56.8205 34.0981L42.6216 42.2921C35.6508 46.3041 33.2732 55.1528 37.3053 62.042C37.3146 62.0581 37.3239 62.0741 37.3332 62.0902L39.3452 60.9336L39.3463 60.9325Z" fill="#00CB99"/>
<path d="M9.35574 53.8709C9.36389 53.8571 9.37088 53.8445 9.37903 53.8307L11.5784 55.1263L13.5997 56.2669C13.6044 56.2588 13.609 56.2508 13.6137 56.2427C15.6571 52.7511 20.1933 51.5313 23.7503 53.5172L20.078 59.8458L22.0993 60.9875L24.3301 62.1935L26.3514 63.3341L30.0237 57.0043L38.0552 61.54L39.2125 59.5461L40.4979 57.3764L41.6506 55.3802L27.3585 47.347C20.3505 43.397 11.3945 45.7906 7.36242 52.6798C7.3531 52.6959 7.34379 52.712 7.33447 52.7281L9.35574 53.8686V53.8709Z" fill="#00CB99"/>
<path d="M0.559044 24.7176C0.574181 24.7176 0.590481 24.7176 0.606782 24.7176L0.569523 27.2445L0.578838 29.5416C0.588152 29.5416 0.597467 29.5416 0.607946 29.5416C4.69473 29.5416 8.03401 32.807 8.06894 36.8386L0.676641 36.8661L0.684791 39.1633L0.741843 41.6729L0.751158 43.9701L8.14462 43.9425L8.17839 53.0715L10.507 53.0634L13.0546 53.0772L15.3832 53.0646L15.2889 36.8374C15.2528 28.8754 8.67323 22.4204 0.60911 22.4204C0.590481 22.4204 0.570688 22.4204 0.553223 22.4204L0.562537 24.7176H0.559044Z" fill="#00CB99"/>
</g>
<defs>
<clipPath id="clip0_259_5895">
<rect width="60" height="63.1111" fill="white" transform="translate(0.549805 0.224121)"/>
</clipPath>
</defs>
</svg>
