<svg width="136" height="143" viewBox="0 0 136 143" fill="none" xmlns="http://www.w3.org/2000/svg">
<g clip-path="url(#clip0_259_5878)">
<path d="M0.906653 55.5292C0.94071 55.5292 0.977386 55.5292 1.01406 55.5292L0.930231 61.2147L0.951189 66.3833C0.972147 66.3833 0.993104 66.3833 1.01668 66.3833C10.2119 66.3833 17.7253 73.7305 17.8039 82.8014L1.17125 82.8634L1.18958 88.0321L1.31795 93.6788L1.33891 98.8474L17.9742 98.7854L18.0502 119.325L23.2896 119.307L29.0216 119.338L34.2611 119.31L34.0489 82.7988C33.9677 64.8844 19.1636 50.3606 1.0193 50.3606C0.977386 50.3606 0.932851 50.3606 0.893555 50.3606L0.914513 55.5292H0.906653Z" fill="#FCB931"/>
<path d="M48.5936 5.8252C48.6119 5.85621 48.6303 5.88464 48.646 5.91565L43.6109 8.68603L39.084 11.2884C39.0945 11.3065 39.1049 11.3246 39.1154 11.3427C43.713 19.199 41.02 29.2907 33.0953 33.8934L24.7252 19.7159L20.1983 22.3157L15.3047 25.2463L10.7778 27.8487L19.1505 42.0288L1.15552 52.3634L3.79097 56.8291L6.63076 61.7419L9.27668 66.2024L41.2243 47.7659C56.9086 38.739 62.2581 18.8294 53.186 3.32876C53.165 3.29258 53.1441 3.2564 53.1231 3.22021L48.5962 5.82261L48.5936 5.8252Z" fill="#46C4DC"/>
<path d="M116.073 21.7135C116.054 21.7445 116.039 21.7729 116.02 21.804L111.072 18.8889L106.524 16.3226C106.513 16.3407 106.503 16.3588 106.492 16.3769C101.895 24.2332 91.6882 26.9777 83.6849 22.5095L91.9476 8.26993L87.3997 5.70113L82.3803 2.98761L77.8324 0.421387L69.5698 14.6635L51.4989 4.45549L48.8949 8.94185L46.0027 13.8236L43.4092 18.3151L75.5664 36.3898C91.3345 45.2772 111.486 39.8915 120.558 24.3909C120.579 24.3547 120.6 24.3185 120.621 24.2823L116.073 21.7161V21.7135Z" fill="#00AE9E"/>
<path d="M135.865 87.3059C135.831 87.3059 135.794 87.3059 135.757 87.3059L135.841 81.6204L135.82 76.4518C135.799 76.4518 135.778 76.4518 135.755 76.4518C126.559 76.4518 119.046 69.1046 118.967 60.0337L135.6 59.9716L135.582 54.803L135.453 49.1563L135.432 43.9877L118.797 44.0497L118.721 23.5096L113.482 23.5277L107.75 23.4967L102.51 23.5251L102.722 60.0362C102.804 77.9507 117.608 92.4745 135.752 92.4745C135.794 92.4745 135.838 92.4745 135.878 92.4745L135.857 87.3059H135.865Z" fill="#74DA77"/>
<path d="M88.1778 137.012C88.1595 136.981 88.1412 136.953 88.1254 136.922L93.1606 134.152L97.6875 131.549C97.677 131.531 97.6665 131.513 97.656 131.495C93.0584 123.639 95.7515 113.547 103.676 108.944L112.046 123.122L116.573 120.522L121.467 117.591L125.994 114.989L117.621 100.809L135.616 90.4742L132.98 86.0085L130.141 81.0958L127.495 76.6353L95.5471 95.0717C79.8628 104.099 74.5133 124.008 83.5854 139.509C83.6064 139.545 83.6274 139.581 83.6483 139.617L88.1752 137.015L88.1778 137.012Z" fill="#F1638D"/>
<path d="M20.6987 121.124C20.7171 121.093 20.7328 121.065 20.7511 121.034L25.6998 123.949L30.2477 126.515C30.2581 126.497 30.2686 126.479 30.2791 126.461C34.8767 118.604 45.0832 115.86 53.0865 120.328L44.8238 134.568L49.3717 137.137L54.3911 139.85L58.9389 142.416L67.2016 128.174L85.2725 138.38L87.8765 133.893L90.7687 129.011L93.3622 124.52L61.205 106.445C45.4369 97.5578 25.2859 102.944 16.2138 118.444C16.1928 118.48 16.1718 118.517 16.1509 118.553L20.6987 121.119V121.124Z" fill="#F47C20"/>
<path d="M0.906653 55.5292C0.94071 55.5292 0.977386 55.5292 1.01406 55.5292L0.930231 61.2147L0.951189 66.3833C0.972147 66.3833 0.993104 66.3833 1.01668 66.3833C10.2119 66.3833 17.7253 73.7305 17.8039 82.8014L1.17125 82.8634L1.18958 88.0321L1.31795 93.6788L1.33891 98.8474L17.9742 98.7854L18.0502 119.325L23.2896 119.307L29.0216 119.338L34.2611 119.31L34.0489 82.7988C33.9677 64.8844 19.1636 50.3606 1.0193 50.3606C0.977386 50.3606 0.932851 50.3606 0.893555 50.3606L0.914513 55.5292H0.906653Z" fill="#FCB931"/>
</g>
<defs>
<clipPath id="clip0_259_5878">
<rect width="135" height="142" fill="white" transform="translate(0.885742 0.418823)"/>
</clipPath>
</defs>
</svg>
